<svg id="Edge" xmlns="http://www.w3.org/2000/svg" width="21" height="21" viewBox="0 0 256 256"><path d="M0 0c19.746 16.233 36.747 38.955 39.613 65.148 1.267 17.89-.776 34.726-12.892 48.807C16.73 124.99 3.662 132.7-11.387 134.148c-15.257.71-34.125.902-46.48-9.34-1.52-1.66-1.52-1.66-2.895-4.972.466-4.578 2.155-6.844 4.805-10.512 4.83-6.692 5.501-13.155 4.57-21.176-2.256-8.248-7.21-14.6-14.562-18.875-6.318-3.4-13.465-4.161-20.48-2.699-8.633 2.809-14.986 8.453-19.083 16.461-4.49 10.846-1.674 23.079 2.496 33.559 9.072 19.796 26.13 32.063 45.985 39.875 22.71 7.617 47.66 5.864 69.398-4 3.651-1.485 5.494-1.327 9.246-.32 1.034 3.188 1.201 4.565-.23 7.656-18.132 26.347-44.108 45.488-75.781 51.652a683 683 0 0 1-3.989.691l-3.195.579c-32.653 3.62-65.521-3.257-91.617-23.891a219.919 219.919 0 0 1-5.188-4.688l-1.556-1.432c-23.076-21.42-37.589-50.789-38.795-82.513-.692-34.551 9.772-64.395 33.487-89.693C-122.515-33.598-48.467-37.214 0 0Z" style="fill:#097fce" transform="translate(207.387 33.852)"/><path d="M0 0c19.746 16.233 36.747 38.955 39.613 65.148 1.267 17.89-.776 34.726-12.892 48.807C16.73 124.99 3.662 132.7-11.387 134.148c-15.257.71-34.125.902-46.48-9.34-1.52-1.66-1.52-1.66-2.895-4.972.466-4.578 2.155-6.844 4.805-10.512 6.117-8.475 5.252-17.362 3.797-27.22-2.55-15.094-11.974-26.972-24.227-35.956-19.028-12.94-41.32-16.914-63.976-13.496a79.579 79.579 0 0 0-9.024 2.496l-3.242 1.032c-16.876 5.876-31.083 17.313-39.758 32.968-1.278 2.956-2.208 5.883-3 9-.394 1.355-.79 2.71-1.187 4.063l-.813 2.937h-1c.858-25.446 11.763-51.255 29-70l1.471-1.63C-125.511-33.08-49.857-38.283 0 0Z" style="fill:#39c9a7" transform="translate(207.387 33.852)"/><path d="m0 0 2 1L.207 2.215C-6.579 7.097-11.414 12.579-13 21-14.164 35.866-9.932 50.623-.45 62.273 16.997 82.427 39.366 91.22 65.489 93.187c14.066.424 28.5-3.074 41.266-8.867 3.651-1.485 5.493-1.327 9.246-.32 1.034 3.188 1.201 4.566-.23 7.656-18.168 26.4-44.183 45.464-75.88 51.75-8.25 1.26-8.25 1.26-12.203-.344-2.799-1.265-2.799-1.265-6.5-1.312-17.6-1.704-34.367-13.074-45.51-26.323C-37.375 98.812-43.177 77.943-41 57c.832-5.153 2.316-10.065 4-15l.84-2.691C-30.434 22.87-17.217 10.064-2.652 1.266L0 0Z" style="fill:#0d4f93" transform="translate(113 102)"/></svg>
  
